<?xml version="1.0" encoding="utf-8"?>
<!-- Generator: Adobe Illustrator 19.0.0, SVG Export Plug-In . SVG Version: 6.00 Build 0)  -->
<svg version="1.1" id="Layer_1" xmlns="http://www.w3.org/2000/svg" xmlns:xlink="http://www.w3.org/1999/xlink" x="0px" y="0px"
	 viewBox="-273 396.9 48 48" style="enable-background:new -273 396.9 48 48;" xml:space="preserve">
<style type="text/css">
	.st0{fill:#FFFFFF;}
	.st1{fill:#636363;}
</style>
<circle class="st0" cx="-249" cy="420.9" r="24"/>
<g id="Expanded">
	<g>
		<g>
			<path class="st1" d="M-236.7,435.9h-8.8c-0.3,0-0.6-0.3-0.6-0.6v-28.8c0-0.3,0.3-0.6,0.6-0.6h8.8c0.3,0,0.6,0.3,0.6,0.6v28.8
				C-236.1,435.6-236.4,435.9-236.7,435.9z M-244.9,434.6h7.5v-27.5h-7.5V434.6z"/>
		</g>
		<g>
			<rect x="-245.5" y="410.9" class="st1" width="3.1" height="1.3"/>
		</g>
		<g>
			<rect x="-245.5" y="414.6" class="st1" width="3.1" height="1.3"/>
		</g>
		<g>
			<rect x="-245.5" y="418.4" class="st1" width="3.1" height="1.3"/>
		</g>
		<g>
			<rect x="-245.5" y="422.1" class="st1" width="3.1" height="1.3"/>
		</g>
		<g>
			<rect x="-245.5" y="425.9" class="st1" width="3.1" height="1.3"/>
		</g>
		<g>
			<rect x="-245.5" y="429.6" class="st1" width="3.1" height="1.3"/>
		</g>
		<g>
			<path class="st1" d="M-254.3,434.6h-2.5c-1.7,0-3.1-1.4-3.1-3.1v-18.1c0-0.1,0-0.2,0.1-0.3l3.8-5.6c0.2-0.3,0.8-0.3,1,0l3.8,5.6
				c0.1,0.1,0.1,0.2,0.1,0.3v18.1C-251.1,433.2-252.5,434.6-254.3,434.6z M-258.6,413.6v17.9c0,1,0.8,1.9,1.9,1.9h2.5
				c1,0,1.9-0.8,1.9-1.9v-17.9l-3.1-4.7L-258.6,413.6z"/>
		</g>
		<g>
			<path class="st1" d="M-251.8,430.9h-7.5c-0.3,0-0.6-0.3-0.6-0.6s0.3-0.6,0.6-0.6h7.5c0.3,0,0.6,0.3,0.6,0.6
				S-251.4,430.9-251.8,430.9z"/>
		</g>
		<g>
			<path class="st1" d="M-251.8,428.4h-7.5c-0.3,0-0.6-0.3-0.6-0.6s0.3-0.6,0.6-0.6h7.5c0.3,0,0.6,0.3,0.6,0.6
				S-251.4,428.4-251.8,428.4z"/>
		</g>
		<g>
			<path class="st1" d="M-256.8,428.4c-0.3,0-0.6-0.3-0.6-0.6v-11.9c0-0.3,0.3-0.6,0.6-0.6c0.3,0,0.6,0.3,0.6,0.6v11.9
				C-256.1,428.1-256.4,428.4-256.8,428.4z"/>
		</g>
		<g>
			<path class="st1" d="M-254.3,428.4c-0.3,0-0.6-0.3-0.6-0.6v-11.9c0-0.3,0.3-0.6,0.6-0.6s0.6,0.3,0.6,0.6v11.9
				C-253.6,428.1-253.9,428.4-254.3,428.4z"/>
		</g>
		<g>
			<rect x="-257.4" y="410.3" class="st1" width="3.8" height="1.3"/>
		</g>
		<g>
			<path class="st1" d="M-257.4,416.5c-1.4,0-2.5-1.1-2.5-2.5c0-0.3,0.3-0.6,0.6-0.6c0.3,0,0.6,0.3,0.6,0.6c0,0.7,0.6,1.3,1.3,1.3
				c0.7,0,1.3-0.6,1.3-1.3c0-0.3,0.3-0.6,0.6-0.6c0.3,0,0.6,0.3,0.6,0.6C-254.9,415.4-256,416.5-257.4,416.5z"/>
		</g>
		<g>
			<path class="st1" d="M-253.6,416.5c-1.4,0-2.5-1.1-2.5-2.5c0-0.3,0.3-0.6,0.6-0.6c0.3,0,0.6,0.3,0.6,0.6c0,0.7,0.6,1.3,1.3,1.3
				s1.3-0.6,1.3-1.3c0-0.3,0.3-0.6,0.6-0.6s0.6,0.3,0.6,0.6C-251.1,415.4-252.2,416.5-253.6,416.5z"/>
		</g>
	</g>
</g>
</svg>
