<?xml version="1.0" encoding="utf-8"?>
<!-- Generator: Adobe Illustrator 19.0.0, SVG Export Plug-In . SVG Version: 6.00 Build 0)  -->
<svg version="1.1" id="Layer_1" xmlns="http://www.w3.org/2000/svg" xmlns:xlink="http://www.w3.org/1999/xlink" x="0px" y="0px"
	 viewBox="-273 396.9 48 48" style="enable-background:new -273 396.9 48 48;" xml:space="preserve">
<style type="text/css">
	.st0{fill:#FFFFFF;}
	.st1{fill:#7C7C7C;}
</style>
<circle class="st0" cx="-249" cy="420.9" r="24"/>
<g id="Expanded">
	<g>
		<g>
			<path class="st1" d="M-247.8,435h-2.4c-1,0-1.8-0.8-1.8-1.8V431c-0.8-0.2-1.5-0.5-2.2-0.9l-1.6,1.6c-0.7,0.7-1.8,0.7-2.5,0
				l-1.7-1.7c-0.3-0.3-0.5-0.8-0.5-1.3s0.2-0.9,0.5-1.3l1.6-1.6c-0.4-0.7-0.7-1.4-0.9-2.2h-2.2c-1,0-1.8-0.8-1.8-1.8v-2.4
				c0-0.5,0.2-0.9,0.5-1.3c0.3-0.3,0.8-0.5,1.3-0.5h2.2c0.2-0.8,0.5-1.5,0.9-2.2l-1.6-1.6c-0.7-0.7-0.7-1.8,0-2.5l1.7-1.7
				c0.7-0.7,1.8-0.7,2.5,0l1.6,1.6c0.7-0.4,1.4-0.7,2.2-0.9v-2.2c0-1,0.8-1.8,1.8-1.8h2.4c1,0,1.8,0.8,1.8,1.8v2.2
				c0.8,0.2,1.5,0.5,2.2,0.9l1.6-1.6c0.7-0.7,1.8-0.7,2.5,0l1.7,1.7c0.3,0.3,0.5,0.8,0.5,1.3s-0.2,0.9-0.5,1.3l-1.6,1.6
				c0.4,0.7,0.7,1.4,0.9,2.2h2.2c1,0,1.8,0.8,1.8,1.8v2.4c0,0.5-0.2,0.9-0.5,1.3c-0.3,0.4-0.8,0.5-1.3,0.5h-2.2
				c-0.2,0.8-0.5,1.5-0.9,2.2l1.6,1.6c0.7,0.7,0.7,1.8,0,2.5l-1.7,1.7c-0.7,0.7-1.8,0.7-2.5,0l-1.6-1.6c-0.7,0.4-1.4,0.7-2.2,0.9
				v2.2C-246.1,434.2-246.8,435-247.8,435z M-254.2,428.8c0.1,0,0.2,0,0.3,0.1c0.8,0.5,1.7,0.9,2.7,1.1c0.3,0.1,0.5,0.3,0.5,0.6v2.6
				c0,0.3,0.3,0.6,0.6,0.6h2.4c0.3,0,0.6-0.3,0.6-0.6v-2.6c0-0.3,0.2-0.5,0.5-0.6c0.9-0.2,1.9-0.6,2.7-1.1c0.2-0.1,0.5-0.1,0.7,0.1
				l1.9,1.9c0.2,0.2,0.6,0.2,0.8,0l1.7-1.7c0.2-0.2,0.2-0.6,0-0.8l-1.9-1.9c-0.2-0.2-0.2-0.5-0.1-0.7c0.5-0.8,0.9-1.7,1.1-2.7
				c0.1-0.3,0.3-0.5,0.6-0.5h2.6c0.2,0,0.3-0.1,0.4-0.2c0.1-0.1,0.2-0.3,0.2-0.4v-2.4c0-0.3-0.3-0.6-0.6-0.6h-2.6
				c-0.3,0-0.5-0.2-0.6-0.5c-0.2-0.9-0.6-1.9-1.1-2.7c-0.1-0.2-0.1-0.5,0.1-0.7l1.9-1.9c0.1-0.1,0.2-0.3,0.2-0.4
				c0-0.1-0.1-0.3-0.2-0.4l-1.7-1.7c-0.2-0.2-0.6-0.2-0.8,0l-1.9,1.9c-0.2,0.2-0.5,0.2-0.7,0.1c-0.8-0.5-1.7-0.9-2.7-1.1
				c-0.3-0.1-0.5-0.3-0.5-0.6v-2.6c0-0.3-0.3-0.6-0.6-0.6h-2.4c-0.3,0-0.6,0.3-0.6,0.6v2.6c0,0.3-0.2,0.5-0.5,0.6
				c-0.9,0.2-1.9,0.6-2.7,1.1c-0.2,0.1-0.5,0.1-0.7-0.1l-1.9-1.9c-0.2-0.2-0.6-0.2-0.8,0l-1.7,1.7c-0.2,0.2-0.2,0.6,0,0.8l1.9,1.9
				c0.2,0.2,0.2,0.5,0.1,0.7c-0.5,0.8-0.9,1.7-1.1,2.7c-0.1,0.3-0.3,0.5-0.6,0.5h-2.6c-0.2,0-0.3,0.1-0.4,0.2
				c-0.1,0.1-0.2,0.3-0.2,0.4v2.4c0,0.3,0.3,0.6,0.6,0.6h2.6c0.3,0,0.5,0.2,0.6,0.5c0.2,0.9,0.6,1.9,1.1,2.7
				c0.1,0.2,0.1,0.5-0.1,0.7l-1.9,1.9c-0.1,0.1-0.2,0.3-0.2,0.4c0,0.2,0.1,0.3,0.2,0.4l1.7,1.7c0.2,0.2,0.6,0.2,0.8,0l1.9-1.9
				C-254.5,428.9-254.4,428.8-254.2,428.8z"/>
		</g>
		<g>
			<path class="st1" d="M-249,426.8c-3.2,0-5.9-2.6-5.9-5.9s2.6-5.9,5.9-5.9s5.9,2.6,5.9,5.9S-245.7,426.8-249,426.8z M-249,416.2
				c-2.6,0-4.7,2.1-4.7,4.7c0,2.6,2.1,4.7,4.7,4.7s4.7-2.1,4.7-4.7C-244.3,418.3-246.4,416.2-249,416.2z"/>
		</g>
	</g>
</g>
</svg>
