<?xml version="1.0" encoding="utf-8"?>
<!-- Generator: Adobe Illustrator 19.0.0, SVG Export Plug-In . SVG Version: 6.00 Build 0)  -->
<svg version="1.1" id="Layer_1" xmlns="http://www.w3.org/2000/svg" xmlns:xlink="http://www.w3.org/1999/xlink" x="0px" y="0px"
	 viewBox="-273 396.9 48 48" style="enable-background:new -273 396.9 48 48;" xml:space="preserve">
<style type="text/css">
	.st0{fill:#FFFFFF;}
	.st1{fill:#7C7C7C;}
</style>
<circle class="st0" cx="-249" cy="420.9" r="24"/>
<g id="Expanded">
	<g>
		<g>
			<path class="st1" d="M-239.2,430.2h-19.6c-1.1,0-2-0.9-2-2v-14.5c0-1.1,0.9-2,2-2h19.6c1.1,0,2,0.9,2,2v14.5
				C-237.2,429.3-238.1,430.2-239.2,430.2z M-258.8,412.6c-0.5,0-1,0.5-1,1.1v14.5c0,0.6,0.4,1.1,1,1.1h19.6c0.5,0,1-0.5,1-1.1
				v-14.5c0-0.6-0.4-1.1-1-1.1H-258.8z"/>
		</g>
		<g>
			<path class="st1" d="M-242.1,432.2h-13.7c-0.3,0-0.5-0.2-0.5-0.5s0.2-0.5,0.5-0.5h13.7c0.3,0,0.5,0.2,0.5,0.5
				S-241.9,432.2-242.1,432.2z"/>
		</g>
		<g>
			<path class="st1" d="M-249,432.2c-0.3,0-0.5-0.2-0.5-0.5v-2c0-0.3,0.2-0.5,0.5-0.5s0.5,0.2,0.5,0.5v2
				C-248.5,432-248.7,432.2-249,432.2z"/>
		</g>
		<g>
			<circle class="st1" cx="-249" cy="427.8" r="1"/>
		</g>
		<g>
			<rect x="-260.3" y="425.3" class="st1" width="22.5" height="1"/>
		</g>
	</g>
</g>
<path class="st1" d="M-251.6,416.1v6.5l5.1-3.3L-251.6,416.1z"/>
</svg>
